HIERARCHY
ROOT Hips
{
	OFFSET 0.00000 0.00000 0.00000
	CHANNELS 6 Xposition Yposition Zposition Yrotation Zrotation Xrotation 
	JOINT Lumbar
	{
		OFFSET 0 0 0
		CHANNELS 3 Zrotation Xrotation Yrotation
		JOINT Neck
		{
			OFFSET 0.00 0.2701 0.00
			CHANNELS 3 Zrotation Xrotation Yrotation
			End Site
			{
				OFFSET 0.00 0.1379 0.00
			}
		}
		JOINT RightShoulder
		{
			OFFSET 0.0119 0.2289 0.1181
			CHANNELS 3 Zrotation Xrotation Yrotation
			JOINT RightElbow
			{
				OFFSET 0.00 -0.1475 0.00
				CHANNELS 2 Zrotation Yrotation
				JOINT RightWrist
				{
					OFFSET 0.00 -0.1605 0.00
					CHANNELS 2 Zrotation Xrotation
					End Site
					{
						OFFSET 0.0040 -0.1068 0.0006
					}
				}
			}
		}
		JOINT LeftShoulder
		{
			OFFSET 0.0119 0.2289 -0.1181
			CHANNELS 3 Zrotation Xrotation Yrotation
			JOINT LeftElbow
			{
				OFFSET 0.00 -0.1475 0.00
				CHANNELS 2 Zrotation Yrotation
				JOINT LeftWrist
				{
					OFFSET 0.00 -0.1605 0.00
					CHANNELS 2 Zrotation Xrotation
					End Site
					{
						OFFSET 0.0040 -0.1068 -0.0006
					}
				}
			}
		}
	}
	JOINT RightHip
	{
		OFFSET 0.0316 -0.0424 0.0458
		CHANNELS 3 Zrotation Xrotation Yrotation
		JOINT RightKnee
		{
			OFFSET 0.00 -0.2438 0.00
			CHANNELS 1 Zrotation
			JOINT RightAnkle
			{
				OFFSET 0.00 -0.2449 0.00
				CHANNELS 3 Zrotation Xrotation Yrotation
				End Site
				{
					OFFSET 0.1237 -0.0542 0.0051
				}
			}
		}
	}
	JOINT LeftHip
	{
		OFFSET 0.0316 -0.0424 -0.0458
		CHANNELS 3 Zrotation Xrotation Yrotation
		JOINT LeftKnee
		{
			OFFSET 0.00 -0.2438 0.00
			CHANNELS 1 Zrotation
			JOINT LeftAnkle
			{
				OFFSET 0.00 -0.2449 0.00
				CHANNELS 3 Zrotation Xrotation Yrotation
				End Site
				{
					OFFSET 0.1237 -0.0542 -0.0051
				}
			}
		}
	}
}
MOTION
Frames: 16
Frame Time: 0.02
-0.00025 -1e-05 -2e-05 -180.32086 -35.46042 -3.13097 43.70972 2.76719 -2.25559 -15.15873 -0.47222 -1.16046 90.36922 -92.87145 -87.13387 5.78711 69.00238 -13.46807 1.1438 68.33082 100.03768 -55.63622 5.78381 -101.22689 11.73899 -1.876 40.90938 -4.75157 -4.55687 -22.48774 -6.93521 -2.58741 -3.49154 44.63183 8.81669 0.54802 -27.82364 -6.56694 2.19173 3.29695
-0.0003 -1e-05 -2e-05 -180.32397 -35.44958 -3.13238 43.70227 2.76886 -2.25143 -15.15911 -0.47492 -1.16075 90.58536 -92.85695 -87.1339 5.78711 69.05133 -13.45433 1.11346 68.4638 100.02653 -55.63579 5.78446 -101.24882 11.75057 -1.88896 40.88453 -4.80818 -4.85673 -22.48738 -6.92881 -2.55795 -3.47591 44.61215 8.85731 0.70407 -27.82461 -6.56525 2.18359 3.29217
-0.00034 -2e-05 -2e-05 -180.32706 -35.43879 -3.13377 43.69484 2.77051 -2.24728 -15.15949 -0.47761 -1.16104 90.80095 -92.84253 -87.13392 5.78711 69.10012 -13.44063 1.08317 68.59651 100.01539 -55.63537 5.78511 -101.27072 11.76212 -1.90188 40.85975 -4.86464 -5.15575 -22.48704 -6.92242 -2.52857 -3.46033 44.59251 8.89787 0.8599 -27.82558 -6.56357 2.17546 3.28739
-0.00038 -2e-05 -2e-05 -180.33015 -35.42799 -3.13517 43.68741 2.77218 -2.24313 -15.15987 -0.4803 -1.16134 91.01645 -92.82808 -87.13394 5.78711 69.14892 -13.42693 1.05291 68.72911 100.00426 -55.63494 5.78576 -101.29259 11.77366 -1.9148 40.83498 -4.92108 -5.4547 -22.48668 -6.91604 -2.4992 -3.44475 44.57289 8.93837 1.01551 -27.82655 -6.56189 2.16734 3.28262
-0.00042 -3e-05 -2e-05 -180.33327 -35.41715 -3.13658 43.67997 2.77385 -2.23899 -15.16025 -0.483 -1.16163 91.23247 -92.81355 -87.13396 5.78711 69.19788 -13.41319 1.0226 68.86194 99.99312 -55.63451 5.78641 -101.31448 11.78525 -1.92775 40.81014 -4.97766 -5.75445 -22.48632 -6.90964 -2.46977 -3.42914 44.55322 8.97893 1.17124 -27.82753 -6.56021 2.15922 3.27786
-0.00046 -3e-05 -2e-05 -180.33631 -35.40643 -3.13795 43.67258 2.77548 -2.23481 -15.16063 -0.48568 -1.16192 91.44713 -92.79933 -87.13398 5.78711 69.24629 -13.39955 0.99238 68.99438 99.982 -55.63409 5.78706 -101.33641 11.79669 -1.94065 40.78549 -5.03387 -6.05191 -22.486 -6.90327 -2.44048 -3.41363 44.53367 9.01948 1.32726 -27.82849 -6.55853 2.15108 3.27307
-0.00051 -4e-05 -2e-05 -180.33949 -35.39549 -3.1394 43.66507 2.77719 -2.2307 -15.16101 -0.4884 -1.16222 91.66426 -92.78451 -87.134 5.78711 69.29576 -13.38574 0.962 69.12744 99.97084 -55.63366 5.78772 -101.35823 11.80841 -1.95362 40.76049 -5.09076 -6.35364 -22.4856 -6.89685 -2.41095 -3.39793 44.5139 9.05999 1.48252 -27.82947 -6.55684 2.14298 3.26832
-0.00055 -4e-05 -2e-05 -180.34255 -35.38476 -3.14078 43.65768 2.77883 -2.22654 -15.16139 -0.49108 -1.16251 91.87918 -92.77024 -87.13402 5.78711 69.34427 -13.37208 0.93177 69.25998 99.95973 -55.63324 5.78836 -101.38016 11.81989 -1.96653 40.73581 -5.14703 -6.65147 -22.48527 -6.89048 -2.38164 -3.3824 44.49433 9.10054 1.63849 -27.83044 -6.55516 2.13484 3.26354
-0.00059 -4e-05 -2e-05 -180.34544 -35.37425 -3.14205 43.65041 2.78038 -2.22229 -15.16176 -0.49372 -1.1628 92.09126 -92.75665 -87.13405 5.78711 69.39156 -13.35859 0.90172 69.39173 99.94861 -55.63282 5.789 -101.4022 11.83101 -1.97935 40.71151 -5.20256 -6.94451 -22.48504 -6.88416 -2.35257 -3.36707 44.47502 9.14117 1.79543 -27.83139 -6.55349 2.12665 3.2587
-0.00063 -5e-05 -2e-05 -180.34924 -35.36237 -3.14389 43.64238 2.78243 -2.21846 -15.16216 -0.49659 -1.1631 92.31927 -92.73917 -87.13406 5.78711 69.44573 -13.34412 0.87062 69.5276 99.93735 -55.63235 5.78971 -101.42354 11.84403 -1.99265 40.68498 -5.26239 -7.26504 -22.4843 -6.87751 -2.32202 -3.35056 44.45424 9.18143 1.94711 -27.83242 -6.55177 2.11877 3.25416
-0.00068 -5e-05 -2e-05 -180.35116 -35.35343 -3.14456 43.63599 2.78343 -2.21379 -15.16252 -0.49897 -1.16339 92.51387 -92.72986 -87.13409 5.78711 69.48545 -13.33173 0.84175 69.65501 99.92651 -55.632 5.79026 -101.44641 11.85312 -2.00499 40.66317 -5.3131 -7.52761 -22.48457 -6.87158 -2.29465 -3.33657 44.43658 9.22242 2.10963 -27.83329 -6.55015 2.11021 3.24899
-0.00072 -6e-05 -0 -180.34754 -35.35221 -3.14163 43.63366 2.78145 -2.20649 -15.16266 -0.50015 -1.16367 92.61431 -92.74364 -87.13416 5.78711 69.48474 -13.32498 0.81886 69.75715 99.91571 -55.63193 5.79035 -101.47301 11.85059 -2.01401 40.6543 -5.33888 -7.62939 -22.4881 -6.86754 -2.27586 -3.32951 44.42728 9.26566 2.30434 -27.83379 -6.54882 2.1 3.24207
-0.00077 -7e-05 3e-05 -180.34211 -35.35399 -3.1376 43.63303 2.77842 -2.1984 -15.16279 -0.5008 -1.16394 92.68155 -92.76551 -87.13424 5.78711 69.46965 -13.32034 0.79824 69.85107 99.90551 -55.63197 5.79027 -101.50121 11.84422 -2.02214 40.65016 -5.35548 -7.67328 -22.49256 -6.86424 -2.26031 -3.32499 44.42116 9.30958 2.50947 -27.83414 -6.54759 2.08908 3.23452
-0.00082 -8e-05 5e-05 -180.33775 -35.3546 -3.13433 43.63188 2.77593 -2.19091 -15.16301 -0.50159 -1.16422 92.76575 -92.78322 -87.13431 5.78711 69.46164 -13.31478 0.77663 69.95027 99.89577 -55.63196 5.79027 -101.529 11.84022 -2.0312 40.64383 -5.37622 -7.74488 -22.49626 -6.86063 -2.2434 -3.31932 44.41371 9.35303 2.70822 -27.83454 -6.5463 2.07836 3.22727
-0.00086 -9e-05 7e-05 -180.33233 -35.35444 -3.12998 43.62969 2.7732 -2.1825 -15.16288 -0.5028 -1.16451 92.84242 -92.80291 -87.13439 5.78711 69.45131 -13.30906 0.75476 70.04342 99.88301 -55.63196 5.79027 -101.55554 11.83378 -2.03829 40.63763 -5.39707 -7.81061 -22.50135 -6.85688 -2.226 -3.31364 44.40576 9.39719 2.91393 -27.83498 -6.54505 2.06814 3.21994
-0.00091 -0.0001 0.0001 -180.3287 -35.35657 -3.12759 43.63006 2.77072 -2.17572 -15.16348 -0.50303 -1.16476 92.92636 -92.82049 -87.13446 5.78711 69.44239 -13.30419 0.73409 70.1466 99.8766 -55.63197 5.79024 -101.58496 11.83126 -2.04897 40.63233 -5.4155 -7.87462 -22.50381 -6.85362 -2.21041 -3.3086 44.39963 9.44 3.10762 -27.83532 -6.54375 2.05671 3.21264
